<svg viewBox="0 0 1024 1024" xmlns="http://www.w3.org/2000/svg"><path d="M166.524283 283.257304L44.466598 405.314989c-59.697677 59.697677-58.878497 154.415259 0 213.293757l121.955288 122.057685c-2.150345-34.610317 9.932547-69.835018 36.351072-96.151147 48.741156-48.741156 127.894336-48.741156 176.635493 0 48.741156 48.741156 48.741156 127.791939 0 176.635493-26.418526 26.418526-61.643227 38.603815-96.151147 36.351072l122.057686 121.955288c59.697677 59.697677 154.415259 58.878497 213.293756 0L979.559535 618.506348c59.697677-59.697677 58.878497-154.415259 0-213.293757l-92.055251-92.05525c32.357574-4.607882 63.588777-19.250709 88.368945-44.235671 61.028843-60.926445 61.028843-159.842321 0-220.768766-60.926445-61.028843-159.739923-61.028843-220.666369 0-24.882565 24.882565-39.627789 56.011371-44.235671 88.368944l-92.055251-92.05525c-59.697677-59.697677-154.415259-58.878497-213.293756 0L283.359702 166.421885c34.507919-2.150345 69.835018 9.932547 96.151146 36.351073 48.741156 48.741156 48.741156 127.894336 0 176.635492-48.741156 48.741156-127.894336 48.741156-176.635492 0-26.316128-26.316128-38.501417-61.643227-36.351073-96.151146z"></path></svg>