<svg viewBox="0 0 1024 1024" xmlns="http://www.w3.org/2000/svg"><path d="M352.6639 55.236515H89.228216c-50.987552 0-89.228216 38.240664-89.228216 84.979253v263.435684c0 46.738589 38.240664 89.228216 89.228216 89.228216h263.435684c46.738589 0 89.228216-38.240664 89.228216-89.228216V140.215768c-4.248963-46.738589-42.489627-84.979253-89.228216-84.979253M994.257261 212.448133L807.302905 25.493776c-33.991701-33.991701-89.228216-33.991701-123.219917 0l-25.493776 25.493776L497.128631 212.448133c-16.995851 16.995851-25.493776 38.240664-25.493776 63.73444 0 21.244813 8.497925 46.738589 25.493776 63.734439l25.493776 25.493776 135.966805 135.966805 25.493776 25.493776c33.991701 33.991701 89.228216 33.991701 123.219917 0l161.46058-161.460581 25.493776-25.493776c33.991701-38.240664 33.991701-93.477178 0-127.468879M352.6639 582.107884H89.228216c-46.738589 0-89.228216 38.240664-89.228216 89.228216V934.771784c0 46.738589 38.240664 84.979253 89.228216 84.979253h263.435684c46.738589 0 89.228216-38.240664 89.228216-89.228215v-263.435685c-4.248963-46.738589-42.489627-84.979253-89.228216-84.979253m526.87137 0h-263.435685c-46.738589 0-89.228216 38.240664-89.228216 89.228216V934.771784c0 46.738589 38.240664 89.228216 89.228216 89.228216h263.435685c46.738589 0 89.228216-38.240664 89.228215-89.228216v-263.435684c-4.248963-50.987552-42.489627-89.228216-89.228215-89.228216"></path></svg>