<svg viewBox="0 0 1024 1024" xmlns="http://www.w3.org/2000/svg"><path d="M415.392 737.088l-129.088-129.28a160.128 160.128 0 0 0 6.016-182.848L422.624 294.4c54.592 35.904 126.208 34.368 179.776-3.776l129.536 129.792a159.68 159.68 0 0 0 5.952 191.872l-128.32 128.64a158.72 158.72 0 0 0-194.24-3.84z m558.528-337.472a158.08 158.08 0 0 0-188.416-26.688L649.632 236.992A158.848 158.848 0 0 0 622.944 48.32a159.616 159.616 0 0 0-225.664 0 158.848 158.848 0 0 0-26.304 189.376L235.552 373.12a158.144 158.144 0 0 0-188.928 26.496 160.384 160.384 0 0 0 0 226.112 158.08 158.08 0 0 0 188.032 26.88l135.936 136a158.784 158.784 0 0 0 26.688 188.672 159.68 159.68 0 0 0 225.664 0c51.072-51.008 59.52-127.616 27.008-187.968l136.384-136.512a158.08 158.08 0 0 0 187.584-27.072 160.384 160.384 0 0 0 0-226.112z"></path></svg>