<svg viewBox="0 0 1024 1024" xmlns="http://www.w3.org/2000/svg"><path d="M597.874345 0.950662L132.875182 0.023031A130.508123 130.508123 0 0 0 0 127.972171v767.694841a130.476136 130.476136 0 0 0 132.875182 127.949141h458.473757a38.544678 38.544678 0 0 1-4.510207-5.149953l-38.032882-66.469579a38.384742 38.384742 0 0 1 13.914469-52.42716l44.590275-25.973675a214.986543 214.986543 0 0 1 0-83.838674L569.373674 767.717872H232.515575a31.987285 31.987285 0 1 1 0-63.97457H553.380031l33.58665-58.824617a37.872946 37.872946 0 0 1 52.043313-14.042418l44.974122 26.165599a228.773063 228.773063 0 0 1 71.555557-42.319178V582.191619a38.384742 38.384742 0 0 1 38.064869-38.384742H863.656696V255.921311L597.874345 0.950662zM631.109134 575.794162H232.515575a31.987285 31.987285 0 1 1 0-63.97457H631.109134a31.987285 31.987285 0 1 1 0 63.97457z m33.266777-319.872851a65.222074 65.222074 0 0 1-66.469579-63.97457V63.997601l199.312773 191.92371H664.375911z"></path><path d="M1010.798208 876.922463l-29.716188-17.273134a144.102719 144.102719 0 0 0 0-55.881787l29.716188-17.305121a25.589828 25.589828 0 0 0 9.3083-34.962102l-25.365917-44.334377-0.159937-0.255899a25.205981 25.205981 0 0 0-34.51428-9.116376l-30.004074 17.497045a152.195502 152.195502 0 0 0-47.693042-28.244773V665.35856a25.589828 25.589828 0 0 0-25.397904-25.589828h-50.731834a25.589828 25.589828 0 0 0-25.397905 25.589828v21.719367c-17.497045 6.429444-33.682611 15.993643-47.693042 28.244772l-30.004073-17.497045-0.191924-0.127949a25.269955 25.269955 0 0 0-34.482293 9.500224l-25.365917 44.334377a25.589828 25.589828 0 0 0 9.3083 34.962102l29.716188 17.273134a144.262656 144.262656 0 0 0 0 55.913775l-29.716188 17.273134a25.589828 25.589828 0 0 0-9.3083 34.962102l25.365917 44.334377c0.063975 0.095962 0.127949 0.159936 0.127949 0.255899a25.269955 25.269955 0 0 0 34.546268 9.116376l30.004073-17.497045c14.010431 12.25113 30.195997 21.815328 47.693042 28.244773v21.655392a25.589828 25.589828 0 0 0 25.397905 25.589828h50.731834a25.589828 25.589828 0 0 0 25.397904-25.589828v-21.719367a152.195502 152.195502 0 0 0 47.693042-28.244773l30.004074 17.497045a25.269955 25.269955 0 0 0 34.674217-9.372274l25.365917-44.334377a25.589828 25.589828 0 0 0-9.3083-34.930116zM895.06821 831.692442a63.654697 63.654697 0 0 1-63.366811 63.97457H831.669411a64.006557 64.006557 0 0 1-64.550341-63.398799 63.97457 63.97457 0 1 1 127.94914-1.151542V831.692442z"></path><path d="M831.669411 793.3077a38.384742 38.384742 0 1 0 38.032882 38.704615V831.692442A38.384742 38.384742 0 0 0 831.669411 793.3077z"></path></svg>