<svg viewBox="0 0 1030 1024" xmlns="http://www.w3.org/2000/svg"><path d="M915.2 0H108.8C51.2 0 0 51.2 0 108.8v812.8c0 51.2 51.2 102.4 108.8 102.4h812.8c57.6 0 108.8-51.2 108.8-108.8V108.8C1024 51.2 972.8 0 915.2 0z m-70.4 825.6H179.2c-32 0-51.2-25.6-51.2-51.2 0-32 25.6-51.2 51.2-51.2h665.6c32 0 51.2 25.6 51.2 51.2s-25.6 51.2-51.2 51.2z m0-300.8c-32 0-51.2-25.6-51.2-51.2V390.4l-243.2 268.8-198.4-185.6-128 147.2c-12.8 6.4-25.6 12.8-44.8 12.8-12.8 0-25.6-6.4-38.4-12.8-6.4-6.4-12.8-19.2-12.8-38.4 0-12.8 6.4-25.6 12.8-38.4L345.6 320l198.4 185.6 185.6-204.8h-83.2c-32 0-51.2-25.6-51.2-51.2 0-32 25.6-51.2 51.2-51.2H857.6c6.4 0 6.4 6.4 6.4 6.4s6.4 0 6.4 6.4l6.4 6.4s0 6.4 6.4 6.4v243.2c12.8 32-12.8 57.6-38.4 57.6z m0 0"></path></svg>