<svg viewBox="0 0 1024 1024" xmlns="http://www.w3.org/2000/svg"><path d="M711.566 892.36c-.114 5.46-1.99 7.338-4.494 7.338H295.879a4.324 4.324 0 0 1-4.437-4.324L238.08 303.388a28.615 28.615 0 0 0-31.403-25.6l-9.443.797a28.9 28.9 0 0 0-26.34 30.777L224.2 898.389c-.17 37.035 32.37 68.722 71.68 68.722h411.193a71.68 71.68 0 0 0 71.85-71.794l53.135-586.126a28.558 28.558 0 0 0-26.34-30.606l-9.386-.853a28.843 28.843 0 0 0-31.403 25.486l-53.362 589.141z"/><path d="M182.898 276.708c-.455 0-1.707-1.195-1.707-1.65V239.73c0-1.081.569-1.65 1.707-1.65h635.79c.455 0 1.65 1.252 1.65 1.65v35.328c0 1.138-.57 1.65-1.65 1.65h-55.751a28.843 28.843 0 0 0-28.615 28.956v9.5a29.013 29.013 0 0 0 28.615 28.957h55.751a68.836 68.836 0 0 0 69.12-69.063V239.73a69.803 69.803 0 0 0-69.12-69.063h-635.79a68.836 68.836 0 0 0-69.12 69.063v35.328c0 37.66 31.46 69.063 69.12 69.063h55.808a28.786 28.786 0 0 0 28.558-28.957v-9.5a29.013 29.013 0 0 0-28.558-28.956h-55.808z"/><path d="M426.61 170.667h170.837c15.758 0 28.33-12.573 28.33-28.445s-12.572-28.444-28.33-28.444H426.61c-15.872 0-28.388 12.572-28.388 28.444s12.573 28.445 28.388 28.445zm0-113.778h170.837c47.047 0 85.22 37.888 85.22 85.333 0 47.104-37.831 85.334-85.22 85.334H426.61a85.106 85.106 0 0 1-85.277-85.334c0-47.104 37.831-85.333 85.277-85.333zm39.765 739.442c0 15.644 13.028 28.33 29.013 28.33h9.444a28.729 28.729 0 0 0 28.956-28.33v-419.1a28.672 28.672 0 0 0-28.956-28.331h-9.444a28.729 28.729 0 0 0-29.013 28.33v419.1zm-131.811.057a28.672 28.672 0 0 0 30.094 27.079l9.443-.342a28.729 28.729 0 0 0 27.819-29.468L385.195 375.75a28.729 28.729 0 0 0-30.151-27.079l-9.444.398a28.729 28.729 0 0 0-27.819 29.469l16.783 417.849zm264.988-2.504a28.558 28.558 0 0 0 27.876 29.241l9.443.342a28.501 28.501 0 0 0 29.98-27.08l15.588-416.71a28.444 28.444 0 0 0-27.875-29.241l-9.444-.399a28.672 28.672 0 0 0-30.037 27.136l-15.531 416.711z"/></svg>