<svg viewBox="0 0 1024 1024" xmlns="http://www.w3.org/2000/svg"><path d="M928 448H96a32 32 0 0 1 0-64h832a32 32 0 0 1 0 64zm0 192H96a32 32 0 0 1 0-64h832a32 32 0 0 1 0 64zM511.83 352a31.9 31.9 0 0 1-22.63-9.37L361 214.42a32 32 0 0 1 45.25-45.25l105.58 105.58L617.37 169.2a32 32 0 1 1 45.25 45.25L534.46 342.63a31.9 31.9 0 0 1-22.63 9.37z"/><path d="M511.83 352a32 32 0 0 1-32-32V96a32 32 0 0 1 64 0v224a32 32 0 0 1-32 32zM384 864.21a32 32 0 0 1-22.63-54.63l128.21-128.21a32 32 0 0 1 45.25 0L663 809.54a32 32 0 0 1-45.25 45.25L512.21 749.25 406.63 854.84a31.9 31.9 0 0 1-22.63 9.37z"/><path d="M512.21 960a32 32 0 0 1-32-32V704a32 32 0 1 1 64 0v224a32 32 0 0 1-32 32z"/></svg>