<svg viewBox="0 0 1024 1024" xmlns="http://www.w3.org/2000/svg"><path d="M880 247.008L717.984 80.992Q700.992 64 677.984 64H360.992q-26.016 0-46.016 18.016-16.992 15.008-23.008 36.992h-60q-43.008 0-73.504 31.008t-30.496 76v627.008q0 44 30.496 75.488T231.968 960h508q43.008 0 73.504-31.488t30.496-75.488v-63.008q23.008-6.016 37.504-25.504T895.968 720V287.008q0-24-16-40zM712 86.016l-3.008-3.008zM810.016 264L744 196zM684 147.008l108 110.016H684V147.008zM676.992 128zm-472 820q4 .992 4.992 2.016-2.016-.992-4.992-2.016zM232 952q-6.016 0-12-.992 4.992.992 12 .992zm543.008-99.008q0 15.008-10.016 25.504T740 888.992H232q-14.016 0-24.512-10.496t-10.496-25.504V225.984q0-15.008 10.496-25.504T232 189.984h58.016v531.008q0 30.016 20.992 51.008t50.016 20.992H775.04v60zm52-132.992q0 2.016-2.016 2.016h-464q-2.016 0-2.016-2.016V136.992q0-2.016 2.016-2.016H612v156.992q0 15.008 10.016 24.992t24 10.016h180.992v392.992zm9.984 64q4-.992 8.992-2.016-4.992.992-8.992 2.016zm-244-168.992H485.984q-15.008 0-24.992 10.496t-10.016 24.992 10.016 24.992 24.992 10.496h107.008q14.016 0 24.512-10.496T628 650.496t-10.496-24.992-24.512-10.496zM700 504H485.984q-14.016 0-24.512 10.496t-10.496 24.992 10.496 24.992 24.512 10.496H700q14.016 0 24-10.496t10.016-24.992T724 514.496 700 504zm-240.992 36q0 4 .992 8-.992-4-.992-8zM700 512zm12 52l4-2.016zM451.008 428.512q0 14.496 10.496 24.992T486.016 464h214.016q14.016 0 24-10.496t10.016-24.992-10.016-24.992-24-10.496H486.016q-14.016 0-24.512 10.496t-10.496 24.992zm8 1.504z"/></svg>