<svg viewBox="0 0 1024 1024" xmlns="http://www.w3.org/2000/svg" width="40" height="40"><path d="M234.667 362.667h170.666V320H234.667v42.667zm555.818 127.829H20.821v383.787h769.664V490.496zm-513.152 128.17h-128v128h128v42.667H106.667V576h170.666v42.667zm213.334 0h-128v42.667h128v128H320v-42.666h128V704H320V576h170.667v42.667zm174.677 170.667h-46.677l1.749-5.333-87.083-208H592l49.579 144.213L689.323 576h56.021l-81.877 207.915 1.877 5.418zm-260.01-554.666H234.666v42.666h170.666v-42.666zm213.333 0H448v42.666h170.667v-42.666zm341.632 87.168L721.152 62.933h-616.49v384.854h88.575V149.376h468.694v212.48h212.48v553.557H104.66v88.022h856.192v-681.6h-.554zM234.667 448h170.666v-42.667H234.667V448zM448 448h170.667v-42.667H448V448zm0-85.333h170.667V320H448v42.667zm213.333 42.666V448h128v-42.667h-128z" fill="#1890ff"/></svg>