<svg viewBox="0 0 1024 1024" xmlns="http://www.w3.org/2000/svg" width="40" height="40"><path d="M0 113.717v796.566C196.182 948.38 392.365 985.87 588.515 1024V0C391.725 38.098 195.543 75.588 0 113.717zm457.94 598.496h-75.587c-6.238 0-9.98-1.216-13.755-7.485l-63.08-120.595c-4.383-8.093-6.27-16.858-8.765-22.456-24.95 46.83-49.966 94.94-76.196 143.05-1.919 3.136-5.63 6.878-8.764 6.878-33.108.64-66.216.64-101.818.64 3.103-5.022 4.99-8.125 6.845-11.26 38.13-59.338 75.62-119.315 113.718-178.685 4.382-6.877 4.99-11.867.64-19.353-34.996-58.73-68.743-118.1-103.098-176.83-2.495-3.742-4.382-7.484-7.485-13.754h41.84c19.385 0 39.345-.608 58.73.64 3.743 0 10.012 3.134 11.26 6.237 19.992 41.905 39.985 83.745 59.338 126.225 2.495 5.63 4.382 11.836 6.877 19.353 1.248-1.856 2.495-3.103 3.135-4.35 23.735-46.863 46.83-93.726 70.597-140.588 1.248-2.495 4.35-6.238 6.846-6.238 31.252-.64 63.112-.64 96.86-.64-3.135 5.63-4.383 8.765-6.878 12.476L362.36 501.7c-4.382 6.845-4.382 11.835 0 19.353a27803.814 27803.814 0 0 1 109.975 179.932c1.855 3.743 3.742 6.878 6.845 12.475l-21.24-1.215zm173.055 192.44s-.607-76.228-.607-115.573h116.82v-79.97h-116.18v-78.083h116.18v-79.33h-116.18v-78.115h116.82v-79.33h-116.82v-77.539h118.067v-80.61H631.027V113.75H1024v791.512l-392.973-.64zm156.87-589.763h149.927c6.878 0 8.125-3.743 8.125-9.373v-69.989H788.472c-.64 26.87-.64 52.46-.64 79.33zm-.64 79.33v56.875c0 22.487 0 22.487 23.127 22.487h124.945c3.743 0 10.013-3.134 10.013-5.022.64-24.343.64-48.717.64-73.7-53.74-.64-105.593-.64-158.725-.64zM944.67 551.665H787.865v78.115H944.67v-78.115zm-156.805 235.56c1.855.64 3.134 1.28 3.742 1.28 48.75 0 97.468 0 146.185.607 6.878 0 8.125-3.135 8.125-8.733 0-19.992-.64-39.985 0-59.977.64-9.373-3.103-11.26-11.835-11.26-45.007.64-90.622 0-135.63 0-3.102 0-6.205.64-9.98.64-.64 26.23-.64 51.82-.64 77.443z" fill="#549f3b"/></svg>