<svg viewBox="0 0 1024 1024" xmlns="http://www.w3.org/2000/svg"><path d="M83.968 1010.924c-39.936 0-71.916-34.028-71.916-76.485V359.424c0-42.535 31.98-76.485 71.916-76.485H686.08c39.936 0 71.916 34.028 71.916 76.485v575.015c0 42.457-31.98 76.485-71.916 76.485H83.968zm0-677.336c-13.312 0-24.34 11.815-24.34 25.836v583.444h1.576c3.072 10.003 11.815 17.329 22.528 17.329H686.08c13.312 0 24.26-11.737 24.26-25.758V359.424c0-14.02-11.027-25.836-24.26-25.836H83.968zm753.664 464.896V223.468c0-14.02-11.028-25.836-24.418-25.836H274.432a24.418 24.418 0 0 1-23.63-25.049c0-13.312 10.24-25.127 23.63-25.127h538.073c39.936 0 71.916 34.107 71.916 76.564v575.25c0 13.312-10.24 25.049-23.552 25.049s-23.237-10.713-23.237-25.836zm127.449-134.932V88.615c0-14.1-11.028-25.836-24.34-25.836H401.959a24.418 24.418 0 0 1-23.63-25.127c0-13.312 10.24-25.049 23.63-25.049h537.994c39.936 0 71.995 34.028 71.995 76.564v574.858c0 13.312-10.24 25.048-23.63 25.048a23.788 23.788 0 0 1-23.237-25.6z" fill="#909399"/><path d="M0 934.44V359.423c0-49.388 37.652-89.56 83.968-89.56H686.08c46.316 0 83.968 40.172 83.968 89.56v575.015c0 49.389-37.652 89.561-83.968 89.561H83.968C37.652 1024 0 983.828 0 934.44zM83.968 295.7c-33.083 0-59.628 28.672-59.628 63.803v574.936c0 35.053 26.86 63.725 59.628 63.725H686.08c33.004 0 59.628-28.672 59.628-63.803V359.503c0-35.053-26.86-63.725-59.628-63.725H83.968zM53.721 955.628h-6.144V359.424c0-21.268 16.384-38.597 36.391-38.597H686.08c19.929 0 36.313 17.33 36.313 38.597v575.015c0 21.268-16.384 38.597-36.313 38.597H83.968a35.682 35.682 0 0 1-30.247-17.329zm30.247-609.2c-6.695 0-12.052 5.828-12.052 12.996V935.7l1.024 3.072c1.26 4.096 4.884 8.664 11.264 8.664h601.797c6.696 0 12.052-5.829 12.052-12.997V359.424c0-6.853-5.593-12.997-11.973-12.997H83.968zM825.58 798.483V223.468c0-6.853-5.671-12.997-12.051-12.997H274.432c-19.692 0-35.604-16.935-35.604-37.888 0-21.031 15.912-37.888 35.604-37.888h538.073c46.316 0 83.968 40.173 83.968 89.561v575.015c0 20.953-15.833 37.81-35.604 37.81-19.929 0-35.289-16.542-35.289-38.597zM274.432 160.689c-6.932 0-11.264 6.46-11.264 12.052 0 7.404 5.908 12.052 11.264 12.052h538.782c20.007 0 36.39 17.329 36.39 38.597v575.015c0 7.64 4.648 13.076 11.265 13.076 6.932 0 11.264-6.46 11.264-12.052V224.414c0-35.053-26.86-63.725-59.628-63.725H274.432zm687.813 529.408a37.258 37.258 0 0 1-9.452-27.096V88.615c0-6.931-5.672-13.075-12.052-13.075H401.959c-19.85.078-35.682-16.857-35.682-37.73 0-21.032 15.833-37.652 35.525-37.652h538.072C986.348 0 1024 40.172 1024 89.639v575.016c0 20.952-15.833 37.809-35.525 37.809a36.549 36.549 0 0 1-26.151-12.288zM401.88 25.68c-6.853 0-11.264 6.301-11.264 11.973 0 7.483 5.907 12.051 11.264 12.051h538.86c20.007 0 36.391 17.408 36.391 38.597v576.04a11.343 11.343 0 0 0 11.264 12.051c6.853 0 11.264-6.459 11.264-12.051V89.324c0-34.973-26.939-63.645-59.707-63.645H401.96z"/></svg>