<svg viewBox="0 0 1024 1024" xmlns="http://www.w3.org/2000/svg"><path d="M838.6 484.7H578.5c-22.5 0-40.7-18.3-40.7-40.7V183.9c0-22.5 18.3-40.7 40.7-40.7h260.1c22.5 0 40.7 18.3 40.7 40.7V444c0 22.5-18.2 40.7-40.7 40.7zM578.5 170.8c-7.3 0-13.2 5.9-13.2 13.2v260c0 7.3 5.9 13.2 13.2 13.2h260.1c7.3 0 13.2-5.9 13.2-13.2V183.9c0-7.3-5.9-13.2-13.2-13.2H578.5zm260.1 709.6H578.5c-22.5 0-40.7-18.3-40.7-40.7V579.6c0-22.5 18.3-40.7 40.7-40.7h260.1c22.5 0 40.7 18.3 40.7 40.7v260.1c0 22.5-18.2 40.7-40.7 40.7zM578.5 566.5c-7.3 0-13.2 5.9-13.2 13.2v260.1c0 7.2 5.9 13.1 13.2 13.1h260.1c7.3 0 13.2-5.9 13.2-13.1V579.6c0-7.3-5.9-13.2-13.2-13.2H578.5zm-134.4-81.8H184c-22.5 0-40.7-18.3-40.7-40.7V183.9c0-22.5 18.3-40.7 40.7-40.7h260.1c22.5 0 40.7 18.3 40.7 40.7V444c0 22.5-18.3 40.7-40.7 40.7zM184 170.8c-7.3 0-13.2 5.9-13.2 13.2v260c0 7.3 5.9 13.2 13.2 13.2h260.1c7.3 0 13.2-5.9 13.2-13.2V183.9c0-7.3-5.9-13.2-13.2-13.2H184zm260.1 709.6H184c-22.5 0-40.7-18.3-40.7-40.7V579.6c0-22.5 18.3-40.7 40.7-40.7h260.1c22.5 0 40.7 18.3 40.7 40.7v260.1c0 22.5-18.3 40.7-40.7 40.7zM184 566.5c-7.3 0-13.2 5.9-13.2 13.2v260.1c0 7.2 5.9 13.1 13.2 13.1h260.1c7.3 0 13.2-5.9 13.2-13.1V579.6c0-7.3-5.9-13.2-13.2-13.2H184z"/></svg>