<svg viewBox="0 0 1024 1024" xmlns="http://www.w3.org/2000/svg"><path d="M918.742 895.182h-812.09c-23.203 0-42.004-19.1-42.004-42.679V169.777c0-23.578 18.801-42.68 42.005-42.68 23.202 0 42.004 19.102 42.004 42.68v640.072h770.085c23.202 0 42.003 19.1 42.003 42.654 0 23.58-18.801 42.68-42.003 42.68zm-98.011-128.011h-84.01c-23.2 0-42.005-19.104-42.005-42.68V425.807c0-23.58 18.804-42.705 42.005-42.705h84.01c23.203 0 42.005 19.127 42.005 42.705V724.49c0 23.576-18.802 42.68-42.005 42.68zm-238.025 0h-84.01c-23.203 0-42.005-19.104-42.005-42.68V255.112c0-23.578 18.802-42.68 42.006-42.68h84.009c23.201 0 42.005 19.102 42.005 42.68v469.379c-.001 23.576-18.805 42.68-42.005 42.68zm-238.027 0h-84.01c-23.203 0-42.005-19.104-42.005-42.68v-85.337c0-23.576 18.802-42.68 42.004-42.68h84.01c23.203 0 42.005 19.104 42.005 42.68v85.337c0 23.576-18.802 42.68-42.004 42.68z"/></svg>