<?xml version="1.0" standalone="no"?><!DOCTYPE svg PUBLIC "-//W3C//DTD SVG 1.1//EN" "http://www.w3.org/Graphics/SVG/1.1/DTD/svg11.dtd"><svg class="icon" width="32px" height="32.00px" viewBox="0 0 1024 1024" version="1.1" xmlns="http://www.w3.org/2000/svg"><path d="M339.058 694.044c-24.273-33.374-39.443-75.851-39.443-121.363 0-118.328 94.056-212.385 212.385-212.385s212.385 94.057 212.385 212.385c0 45.512-15.17 87.989-39.443 121.363l54.614 27.307c27.306-42.477 45.51-94.056 45.51-148.67 0-151.703-121.362-273.066-273.066-273.066S238.933 420.978 238.933 572.68c0 54.614 15.17 106.193 45.511 148.67l54.614-27.307z" fill="#29C287" /><path d="M229.831 751.692c-33.375-51.58-51.58-112.26-51.58-179.01 0-185.079 148.67-333.749 333.749-333.749s333.748 148.67 333.748 333.748c0 66.75-18.204 127.432-51.58 179.01l78.887 42.478C912.498 730.453 936.77 654.6 936.77 572.68c0-233.623-191.146-424.77-424.77-424.77S87.23 339.058 87.23 572.681c0 81.92 24.272 157.772 63.715 221.488l78.886-42.477z" fill="#706EE7" /><path d="M569.647 769.896c9.103-33.375 27.307-336.782 27.307-336.782S460.421 706.181 451.32 739.556c-9.103 33.374 9.102 66.75 42.477 72.817 33.374 9.103 66.75-9.102 75.851-42.477z" fill="#29C287" /></svg>