<?xml version="1.0" standalone="no"?><!DOCTYPE svg PUBLIC "-//W3C//DTD SVG 1.1//EN" "http://www.w3.org/Graphics/SVG/1.1/DTD/svg11.dtd"><svg class="icon" width="32px" height="32.00px" viewBox="0 0 1024 1024" version="1.1" xmlns="http://www.w3.org/2000/svg"><path d="M633.87500029 629.38636367L353.64772724 496.31818203l-107.9545456-330.00000029 265.79545489 13.97727246-1.36363624 23.29545498-231.81818203-12.04545498 94.43181797 288.06818203L637.05681846 605.18181817l210.90909023-38.63636367 4.204546 22.84090927-218.2954544 39.9999999z m0 0" fill="#5EBE8B" /><path d="M433.64772705 846.77272754l-155.45454522-111.7045459 61.47727296-270.4545457 22.84090927 5.11363652-58.18181836 255.11363701 142.84090899 102.84090909-13.52272764 19.09090898z m214.88636426-209.43181846l21.59090859-8.63636397 71.25000029 178.06818252-21.59090946 8.6363631-71.24999942-178.06818165zM130.23863633 877.0000001L270.92045498 746.65909092l15.7954544 17.04545419-140.68181865 130.34090919-15.7954544-17.0454542z m0 0" fill="#5EBE8B" /><path d="M208.8749999 459.04545459c0 78.63636357 63.74999971 142.38636328 142.38636416 142.38636328s142.38636328-63.74999971 142.38636328-142.38636328c0-78.63636357-63.74999971-142.38636328-142.38636328-142.38636328S208.8749999 380.40909102 208.8749999 459.04545459z m0 0M565.01136406 619.15909063c0 49.09090869 39.77272705 88.86363662 88.86363574 88.86363661s88.86363662-39.77272705 88.86363663-88.86363661-39.77272705-88.86363662-88.86363663-88.86363575-88.86363662 39.77272705-88.86363574 88.86363575z m0 0M208.8749999 726.2045457c0 31.81818164 16.93181778 61.13636367 44.43181787 77.0454545 27.5000001 15.90909082 61.36363652 15.90909082 88.86363663 0 27.5000001-15.90909082 44.43181787-45.22727285 44.43181875-77.0454545 0-49.09090869-39.77272705-88.86363662-88.86363663-88.86363662s-88.86363662 39.77272705-88.86363662 88.86363662z m0 0M173.07954512 191.88636347c0 49.09090869 39.77272705 88.86363662 88.86363662 88.86363663s88.86363662-39.77272705 88.86363662-88.86363663-39.77272705-88.86363662-88.86363662-88.86363662-88.86363662 39.77272705-88.86363662 88.86363662z m0 0" fill="#6E72DF" /><path d="M457.85227256 191.88636347c0 19.09090898 10.22727305 36.81818174 26.81818242 46.36363624 16.59090937 9.5454545 36.93181816 9.5454545 53.52272666 0 16.59090937-9.5454545 26.81818154-27.27272724 26.81818242-46.36363624 0-19.09090898-10.22727305-36.81818174-26.81818242-46.36363623-16.59090937-9.5454545-36.93181816-9.5454545-53.52272666 0-16.59090937 9.5454545-26.81818154 27.27272724-26.81818242 46.36363623z m0 0M867.96590908 617.34090869c29.31818203 0 53.52272754-23.7499998 53.52272754-53.52272666 0-29.31818203-23.7499998-53.52272754-53.52272754-53.52272753-29.31818203 0-53.52272754 23.7499998-53.52272754 53.52272753 0 29.31818203 23.7499998 53.52272754 53.52272754 53.52272666z m0 0M671.60227256 797.45454511c0 19.09090898 10.22727305 36.81818174 26.70454599 46.36363712 16.59090937 9.5454545 36.93181816 9.5454545 53.52272666 0 16.59090937-9.5454545 26.81818154-27.27272724 26.81818242-46.36363711 0-19.09090898-10.22727305-36.81818174-26.81818242-46.36363624-16.59090937-9.5454545-36.93181816-9.5454545-53.52272666 0-16.59090937 9.5454545-26.70454511 27.27272724-26.70454599 46.36363624z m0 1e-8" fill="#5EBE8B" /><path d="M386.71590869 833.2499999c0 19.09090898 10.22727305 36.81818174 26.81818243 46.36363624 16.59090937 9.5454545 36.93181816 9.5454545 53.52272665 0 16.59090937-9.5454545 26.81818154-27.27272724 26.81818242-46.36363624 0-19.09090898-10.22727305-36.81818174-26.81818242-46.36363623-16.59090937-9.5454545-36.93181816-9.5454545-53.52272665 0-16.59090937 9.5454545-26.81818154 27.27272724-26.81818243 46.36363623z m0 0M101.8295457 868.70454541c0 19.09090898 10.22727305 36.81818174 26.81818154 46.36363623 16.59090937 9.5454545 36.93181816 9.5454545 53.52272755 0 16.59090937-9.5454545 26.81818154-27.27272724 26.81818154-46.36363623 0-29.54545489-23.97727266-53.52272754-53.52272754-53.52272754-29.65909131 0-53.63636396 23.86363623-53.63636309 53.52272754z m0 0" fill="#5EBE8B" /></svg>