<?xml version="1.0" standalone="no"?><!DOCTYPE svg PUBLIC "-//W3C//DTD SVG 1.1//EN" "http://www.w3.org/Graphics/SVG/1.1/DTD/svg11.dtd"><svg class="icon" width="32px" height="32.00px" viewBox="0 0 1024 1024" version="1.1" xmlns="http://www.w3.org/2000/svg"><path d="M938.667 292.978v-73.956h-5.69l-19.91 22.756c-2.845 2.844-5.69 2.844-8.534 2.844H896c-2.844 0-8.533-2.844-8.533-5.689l-14.223-11.377c-2.844-2.845-5.688-5.69-8.533-5.69h-17.067c-2.844 0-8.533-2.844-11.377-5.688l-31.29-45.511c-2.844-2.845-5.688-5.69-8.533-5.69l-19.91-2.844h-5.69l-31.288 11.378v17.067l-5.69 36.978c0 2.844-2.844 5.688-2.844 5.688l-5.689 5.69c-2.844 2.844-5.689 2.844-8.533 2.844h-5.689c-5.689 0-11.378 2.844-11.378 8.533l-5.689 14.222c-2.844 8.534 2.845 17.067 11.378 17.067h14.222l11.378-8.533 8.534 5.689c5.688 5.688 2.844 17.066-5.69 19.91l-25.6 8.534v17.067h-25.6l-5.688 17.066-22.756-2.844c-5.689 0-8.533 2.844-11.378 5.689l-5.688 8.533 8.533 8.533-22.756 25.6c-2.844 2.845-5.689 2.845-8.533 2.845h-34.133c-2.845 0-5.69 0-8.534 2.844l-8.533 8.534c-2.844 2.844-5.689 2.844-8.533 2.844h-25.6c-2.845 0-5.69 0-8.534-2.844l-17.066-14.223c-2.845 0-2.845-2.844-5.69-2.844l-62.577-2.844c-2.844 0-5.689-2.845-8.533-5.69l-34.134-45.51c-2.844-2.845-5.689-5.69-8.533-5.69h-2.844c-5.69 0-11.378-5.688-11.378-11.377v-19.911l-2.845-17.067c0-2.844-2.844-5.689-5.689-8.533h-19.91c-2.845 0-5.69-2.845-5.69-5.69l-5.688-17.066h-14.223L307.2 256h-14.222v14.222h-28.445c-2.844 0-8.533 2.845-8.533 5.69l-11.378 17.066c-2.844 2.844-5.689 5.689-11.378 5.689h-14.222c-5.689 0-11.378 5.689-11.378 11.377v17.067c0 2.845 0 5.689-2.844 5.689l-8.533 14.222c-2.845 2.845-2.845 5.69-8.534 5.69l-31.289 8.532H108.09c-2.845 0-5.689 2.845-8.533 2.845l-8.534 11.378c-5.689 8.533-5.689 11.377-5.689 14.222v14.222h11.378v45.511c0 2.845 2.845 5.69 5.689 8.534l19.911 17.066c2.845 2.845 2.845 2.845 2.845 5.69l5.688 19.91V537.6h-11.377v22.756c0 2.844 2.844 5.688 2.844 8.533l25.6 22.755h14.222l56.89 56.89 2.844 2.844 48.355 19.91 8.534-11.377h17.066c5.69 0 8.534 2.845 11.378 5.689l8.533 17.067c2.845 2.844 5.69 5.689 11.378 5.689h14.222c2.845 0 2.845 0 5.69-2.845l28.444-17.067c2.844-2.844 8.533-2.844 11.377 0l25.6 11.378v-11.378h14.223l5.689 17.067v25.6c0 2.845 0 5.689-2.845 8.533l-14.222 14.223v14.222l11.378 2.844c2.844 0 8.533 2.845 8.533 8.534l2.844 8.533v19.911l28.445 19.911c2.844 2.845 5.689 2.845 5.689 2.845h5.689c5.689 0 11.377-5.69 11.377-11.378s5.69-11.378 11.378-11.378h28.445c2.844 0 5.689 0 8.533-2.844l8.533-5.69c5.69-2.844 11.378-2.844 17.067 2.845l19.911 22.756c2.845 2.844 5.689 5.689 8.533 5.689h34.134l2.844 14.222-19.91 22.755v14.223l14.221 8.533c5.69 2.844 14.223 0 17.067-5.689l14.222-19.911c2.845-2.844 2.845-5.689 2.845-8.533l-2.845-19.911c0-5.69 2.845-14.223 8.534-14.223l19.91-5.689h5.69l11.377 2.845 14.223-5.689 2.844-14.222c0-5.69 5.689-8.534 8.533-8.534l17.067-5.688c2.844 0 2.844 0 5.689-2.845l54.044-48.355c2.845-2.845 2.845-2.845 2.845-5.69l8.533-42.666c0-2.844 2.845-5.689 5.689-8.533l14.222-8.534c2.845-2.844 5.69-8.533 5.69-11.377l-5.69-51.2c0-2.845-2.844-5.69-5.689-8.534l-11.377-8.533c-2.845-2.845-5.69-5.689-5.69-8.533l-2.844-11.378c0-2.845-2.844-5.69-5.689-8.534l-19.91-17.066c-5.69-2.845-5.69-11.378-2.845-17.067l11.378-19.911c0-2.844 2.844-2.844 5.688-5.689l22.756-8.533v-14.222h-22.756c-2.844 0-8.533 2.844-11.377 5.688l-8.534 11.378-8.533 8.534-2.844-14.223-19.912-5.689 48.356-62.577 5.689 8.533v17.067c0 2.844 0 8.533 2.844 8.533l2.845 2.844c5.689 2.845 11.378 2.845 17.066 0l39.823-39.822c2.844-2.844 2.844-5.689 2.844-11.378l-2.844-11.377 25.6-2.845c2.844 0 5.689-2.844 8.533-2.844l22.756-22.756c2.844-2.844 5.688-8.533 2.844-14.222l-14.222-31.289 11.378-11.378h19.91zM799.289 762.31c0 2.845-2.845 2.845-2.845 5.689v22.756c0 2.844 0 5.688 2.845 8.533l11.378 17.067 8.533-11.378c0-2.845 2.844-2.845 2.844-5.69l5.69-59.732H813.51L799.29 762.31z" fill="#C3C3D5" /><path d="M489.244 571.733c-8.533-14.222-8.533-31.289-11.377-42.666-17.067-73.956-85.334-130.845-164.978-130.845-93.867 0-170.667 76.8-170.667 170.667 0 79.644 54.045 145.067 128 164.978 14.222 2.844 34.134 2.844 45.511 11.377 11.378 8.534 14.223 17.067 19.911 25.6 22.756 34.134 59.734 54.045 105.245 54.045 71.111 0 128-56.889 128-128 0-39.822-19.911-76.8-48.356-99.556-11.377-8.533-22.755-14.222-31.289-25.6z" fill="#E17C77" /><path d="M483.556 642.844c-2.845-2.844-5.69-2.844-5.69-5.688-8.533-5.69-25.6-17.067-34.133-34.134-14.222-19.91-17.066-39.822-17.066-54.044v-5.69c-11.378-51.2-56.89-88.177-110.934-88.177-62.577 0-113.777 51.2-113.777 113.778 0 51.2 34.133 96.711 85.333 110.933 2.844 0 5.689 0 8.533 2.845 14.222 2.844 34.134 5.689 51.2 14.222 22.756 14.222 31.29 31.289 36.978 39.822 0 0 0 2.845 2.844 2.845 14.223 19.91 34.134 31.288 56.89 31.288 39.822 0 71.11-31.288 71.11-71.11-2.844-25.6-11.377-45.512-31.288-56.89z" fill="#60DD5A" /></svg>