<svg viewBox="0 0 1024 1024" xmlns="http://www.w3.org/2000/svg"><path d="M957.719 275.802c-5.86-5.86-37.112 27.346-50.785 25.393-13.673-1.953 3.907-28.323-31.253-32.229-12.703-1.411-19.03-1.93-21.932-2.017-3.349-7.781-24.748-56.737-33.737-58.535-9.766-1.953-15.626 0-15.626 0s-22.463-24.416-57.622 14.65c0 0 24.416 2.93 10.743 18.556s-13.673 41.019-33.206 43.949c-19.533 2.93-16.603-6.836-16.603-6.836s-13.673 39.066-8.79 44.926c4.883 5.86 20.51-5.86 21.486 0 23.439-15.626 46.879 14.65 34.183 20.51-12.696 5.86-24.817 0-24.817 0s-19.132 10.743-20.109 13.673c-0.977 2.93-8.79 25.393-22.463 12.696l-15.626 17.58s-17.58-2.93-21.486-7.813c-3.907-4.883-20.51 17.58-4.883 26.369 5.398 6.387-6.579 10.743-6.579 10.743s-9.047 13.673-22.72 17.58-33.206-5.86-41.996 0-27.346 13.673-26.369 16.603c0.977 2.93-35.159-16.603-45.902-16.603-10.743 0 0.977-13.673-52.739-13.673-8.85-0.072-28.323-6.836-28.323-6.836l-13.673-26.369-20.51-19.533-42.972-12.696 4.883-18.406 2.93-17.729s-7.813-11.72-7.813-16.603c0-4.883-11.72-10.743-13.673-13.673-1.953-2.93-11.72-12.696-9.766-19.533 1.953-6.837-4.883-10.743-4.883-10.743s-14.65 14.65-17.58 14.65-18.556 11.72-17.58 20.509-29.299 4.883-33.206-4.883c-3.907-9.766-22.463 26.369-20.51 29.299 1.953 2.93-27.346 5.86-31.253 3.907-3.907-1.953 1.953 18.556 0 27.346s-14.65 17.58-14.65 17.58v10.743s-46.879 5.86-48.832 9.766c-1.953 3.907-7.813-2.93-18.556 6.837-10.743 9.766-10.743-11.72-10.743-11.72s-29.299-3.907-33.206 4.883c-3.907 8.79-13.673 23.439 4.883 33.206 3.024 15.917-3.907 20.51-3.907 20.51s-6.293-6.837-7.053 0c-0.76 6.837 12.913 17.58 13.89 21.486 0.977 3.907 1.953 24.416 25.393 34.183 0 6.837-2.93 17.58-2.93 17.58s17.58 5.86 15.626 10.743c-1.953 4.883-8.79 1.953-10.743 0-1.953-1.953 8.79 39.066-0.977 40.042-9.766 0.977-5.86-9.766-5.86-9.766s-4.883 10.743-4.883 17.58c0 6.836-3.907 17.58 10.743 21.486 5.922 3.854 4.883 27.346 22.463 24.416 9.497-1.583 9.586-3.449 8.74-4.37 0.27 0.13 0.607 0.283 1.026 0.463 6.837 2.93 12.696 31.253 21.486 31.253s11.72 24.416 27.346 30.276c15.626 5.86 21.486 17.58 35.159 18.556 13.673 0.977 10.743 0 18.556 11.72 7.813 11.72 10.743-18.556 22.463-11.72 11.72 6.837 24.416 6.43 30.276 14.446 5.86 8.016 2.93 17.783 2.93 17.783s11.72 8.79 30.276 4.883c18.556-3.907 35.159-18.556 41.019-18.556s24.416 7.813 27.346 8.79c2.93 0.977 4.883-14.65 7.813-12.696 2.93 1.953 29.305 38.089 12.211 56.645-17.094 18.556-48.347 41.019-4.398 38.089 5.86 9.766 4.398 19.533 4.398 19.533h8.299l-8.299 19.533h11.229l11.72 17.58 8.79-4.883 5.86 11.72h10.743l-2.93-27.346 9.766 3.906s3.907-9.766 8.79-9.766 3.907 8.79 8.79 8.79c4.883 0 13.673-5.86 13.673-5.86s10.743 3.907 14.65 3.907 8.79-10.743 15.626-10.743 19.533 2.93 22.463 4.883c2.93 1.953 16.603 38.089 40.042 32.229 23.439-5.86 13.673-8.79 21.486 6.836s9.766 26.369-1.953 25.393c-11.72-0.977-28.323 28.323-9.766 31.253 18.556 2.93 29.299-19.533 37.112-25.393 7.813-5.86-9.766-10.743-9.766-18.556 0-7.813-4.883-16.603-4.883-16.603s49.809-8.79 52.739-15.626 15.626-15.626 15.626-15.626 35.159 3.907 44.926-2.93c9.766-6.837 32.229-21.486 42.972-36.136 10.743-14.65 15.626-44.926 15.626-44.926v-4.883s5.86-2.93 17.58-15.626c11.72-12.696 15.626-30.276 15.626-30.276V684.04s-7.676 0.646-21.486-5.86c9.766-9.766 28.323-3.907 15.626-16.603-12.696-12.696 2.93-10.743 2.93-10.743s-28.323-56.645-42.972-58.599c-14.65-1.953 36.136-53.715 36.136-60.552s-73.248-9.766-73.248-9.766l-10.743-18.556s19.533-4.883 35.159-23.439c15.626-18.556 41.996-40.042 30.276 6.836s10.743-11.72 40.042-13.673c3.907-7.813 9.766-16.603 19.533-20.51 9.766-3.907 12.696-21.486 12.696-21.486h24.416l-7.813-10.743s22.463-9.766 23.439-27.346c9.766 4.883 9.766 4.883 16.603-6.836 6.837-11.72 4.883-26.369 0-31.253-4.883-4.883 12.696-16.603 16.603-16.603s17.581-56.646 11.721-62.506zM838.569 781.704s-17.58-0.977-24.416 25.393c-3.907 10.743-11.72 25.393 0 31.253 11.72 5.86 13.02 8.79 13.02 8.79s13.349-18.556 11.396-30.764c-1.954-12.209 12.696-24.906 0-34.672z" fill="#706ee7"></path></svg>