<?xml version="1.0" standalone="no"?><!DOCTYPE svg PUBLIC "-//W3C//DTD SVG 1.1//EN" "http://www.w3.org/Graphics/SVG/1.1/DTD/svg11.dtd"><svg class="icon" width="32px" height="29.90px" viewBox="0 0 1096 1024" version="1.1" xmlns="http://www.w3.org/2000/svg"><path d="M29.125818 609.321374c0 63.550061 50.313051 113.859232 113.864404 113.859232 63.544889 0 113.857939-50.307879 113.85794-113.859232s-50.313051-113.863111-113.85794-113.863111c-63.551354 0-113.864404 50.313051-113.864404 113.863111z m0 0" fill="#706EE7" /><path d="M516.342949 296.868202c0 45.014626 34.424242 79.433697 79.440162 79.433697 42.364121 0 79.43499-37.070869 79.43499-79.433697 0-45.015919-34.419071-79.440162-79.43499-79.440162s-79.440162 37.070869-79.440162 79.440162z m0 0" fill="#29C287" /><path d="M852.631273 675.519354c0 50.313051 39.717495 90.030545 90.030545 90.030545 50.307879 0 90.025374-39.717495 90.025374-90.030545 0-50.307879-39.717495-90.030545-90.025374-90.030546-50.313051-2.646626-90.030545 39.722667-90.030545 90.030546z m0 0" fill="#FFC107" /><path d="M0 815.857778c0 26.479192 21.182061 47.661253 47.661253 47.661252 26.480485 0 47.662545-21.182061 47.662545-47.661252s-21.182061-47.65996-47.662545-47.65996c-26.479192-0.001293-47.661253 21.179475-47.661253 47.65996z m1048.576-373.35402a23.731717 23.731717 0 0 0 23.833859 23.828686 23.730424 23.730424 0 0 0 23.828686-23.828686 23.730424 23.730424 0 0 0-23.828686-23.832566 23.731717 23.731717 0 0 0-23.833859 23.832566z m0 0" fill="#F89275" /><path d="M887.050343 408.079515c0 15.888808 13.242182 26.480485 26.479192 26.480485 15.888808 0 26.479192-13.243475 26.479192-26.480485 0-15.888808-13.23701-26.479192-26.479192-26.479192-15.883636-2.646626-26.479192 10.590384-26.479192 26.479192z m0 0" fill="#98DB8E" /><path d="M296.565657 196.24598c0 18.535434 15.888808 34.424242 34.424242 34.424242s34.424242-15.888808 34.424242-34.424242-15.888808-34.424242-34.424242-34.424243c-18.535434-2.646626-34.424242 13.243475-34.424242 34.424243z m0 0" fill="#EED285" /><path d="M675.216808 511.347071c0 18.535434 13.242182 31.777616 31.777616 31.777616s31.772444-15.888808 31.772445-31.777616c0-18.535434-13.23701-31.772444-31.772445-31.772445s-31.777616 13.23701-31.777616 31.772445z m0 0" fill="#F89275" /><path d="M378.651152 508.700444c0 18.535434 13.242182 31.773737 31.777616 31.773738s31.773737-13.23701 31.773737-31.773738c0-18.535434-13.238303-31.777616-31.773737-31.777616s-31.777616 13.242182-31.777616 31.777616z m0 0" fill="#EED285" /><path d="M264.793212 352.473212c0 13.238303 10.590384 26.480485 23.827394 26.480485 13.243475 0 23.833859-10.591677 23.833859-26.480485 0-13.242182-10.590384-26.479192-23.833859-26.479192-13.23701 0-23.827394 13.23701-23.827394 26.479192z m0 0" fill="#F89275" /><path d="M526.934626 654.337293a23.731717 23.731717 0 0 0 23.833859 23.828687 23.730424 23.730424 0 0 0 23.828687-23.828687 23.731717 23.731717 0 0 0-23.828687-23.833859 23.73301 23.73301 0 0 0-23.833859 23.833859z m0 0" fill="#98DB8E" /></svg>