<?xml version="1.0" standalone="no"?><!DOCTYPE svg PUBLIC "-//W3C//DTD SVG 1.1//EN" "http://www.w3.org/Graphics/SVG/1.1/DTD/svg11.dtd"><svg class="icon" width="32px" height="32.00px" viewBox="0 0 1024 1024" version="1.1" xmlns="http://www.w3.org/2000/svg"><path d="M356.545293 379.095919h-42.369293l-26.479192-100.620929h-0.530101l-25.420283 100.620929H218.853495L171.190949 229.227313h43.424324l27.535515 101.67596h0.530101l24.89406-101.67596h40.247596l25.41899 101.67596h0.530101l27.535516-101.67596h42.369292l-47.131151 149.868606z m101.67596-74.671838c0 5.828525 0.531394 11.651879 1.591595 17.479111 1.060202 5.823354 3.176727 10.591677 5.823354 15.358707 2.651798 4.763152 6.358626 7.939879 11.120485 11.121778 4.768323 2.646626 10.596848 4.231758 17.480404 4.231757s12.706909-1.585131 17.473939-4.231757c4.768323-2.651798 8.475152-6.358626 11.121778-11.121778 2.646626-4.76703 4.768323-9.535354 5.823354-15.358707a97.437737 97.437737 0 0 0 1.590303-17.479111c0-5.823354-0.530101-11.646707-1.590303-17.475233-1.05503-5.823354-3.176727-11.120485-5.823354-15.358707-2.646626-4.236929-6.353455-7.943758-11.121778-11.120484-4.76703-3.176727-10.590384-4.238222-17.473939-4.238223s-12.712081 1.591596-17.480404 4.238223c-4.761859 2.651798-8.468687 6.358626-11.120485 11.120484-2.646626 4.238222-4.763152 9.535354-5.823354 15.358707-1.060202 5.298424-1.591596 11.121778-1.591595 17.475233z m-41.307798 0c0-12.176808 1.591596-22.768485 5.298424-32.83394 3.706828-9.530182 9.005253-18.00404 15.888808-24.888888 6.883556-6.883556 14.828606-12.18198 24.358788-15.888809 9.535354-3.706828 20.125737-5.823354 31.777616-5.823353 11.651879 0 22.242263 2.116525 32.302545 5.823353 9.530182 3.706828 18.005333 9.005253 24.358788 15.888809 6.888727 6.884848 12.18198 15.358707 15.888808 24.888888 3.706828 9.535354 5.298424 20.657131 5.298425 32.83394 0 12.18198-1.590303 22.772364-5.298425 32.307717-3.706828 9.530182-9.000081 18.005333-15.888808 24.888889-6.883556 6.883556-14.828606 12.18198-24.358788 15.888808-9.530182 3.706828-20.125737 5.293253-32.302545 5.293252-11.651879 0-22.242263-1.586424-31.777616-5.293252-9.530182-3.706828-17.475232-9.005253-24.358788-15.888808s-12.18198-15.358707-15.888808-24.888889c-3.706828-9.535354-5.298424-20.655838-5.298424-32.307717z m182.176323-75.196768h39.192565V257.292929h0.530101c2.116525-4.768323 4.768323-9.005253 7.945051-12.712081 3.176727-3.708121 6.883556-7.414949 11.121778-10.061575 4.236929-2.645333 9.000081-4.76703 13.767111-6.353455 4.768323-1.590303 10.060283-2.120404 15.358707-2.120404 2.646626 0 5.823354 0.530101 9.000081 1.58901v38.131071c-2.116525-0.530101-4.231758-0.530101-6.883556-1.060202-2.646626-0.530101-5.293253-0.530101-7.94505-0.530101-7.413657 0-13.767111 1.060202-19.060364 3.706828-5.298424 2.651798-9.535354 5.828525-12.712081 10.065455-3.176727 4.233051-5.298424 9.530182-6.883555 15.353535-1.590303 5.828525-2.121697 12.18198-2.121697 19.065535v67.788283h-41.307798V229.227313z m219.253656 74.671839c0-6.358626-0.530101-12.18198-1.590303-18.010506-1.060202-5.823354-3.176727-10.591677-5.823353-15.353535-2.651798-4.236929-6.358626-7.945051-11.121778-10.595555-4.236929-2.646626-10.065455-4.233051-16.94901-4.233051s-12.712081 1.586424-16.943838 4.233051a30.586828 30.586828 0 0 0-11.121778 10.595555c-2.651798 4.231758-4.768323 9.530182-6.358627 15.353535-1.05503 5.828525-2.116525 11.651879-2.116525 18.010506 0 5.822061 0.530101 11.645414 2.116525 17.473939 1.590303 5.823354 3.706828 11.123071 6.358627 15.358707 3.176727 4.763152 6.883556 8.46998 11.121778 11.121778 4.231758 2.646626 10.060283 4.236929 16.413737 4.236929 6.883556 0 12.18198-1.590303 16.94901-4.236929 4.763152-2.651798 7.945051-6.358626 11.121778-11.121778 2.646626-4.76703 4.763152-9.535354 5.823353-15.358707 1.58901-5.297131 2.120404-11.651879 2.120404-17.473939z m0.52493 56.131232h-0.52493c-4.768323 7.943758-11.121778 13.772283-19.065535 17.479111-7.945051 3.706828-16.94901 5.293253-26.479192 5.293252-11.121778 0-21.187232-2.116525-29.657212-6.353454-8.475152-4.236929-15.358707-10.060283-21.187232-17.475232-5.823354-7.413657-9.530182-15.888808-12.706909-25.949091-2.646626-9.535354-4.236929-19.595636-4.23693-30.187313 0-10.060283 1.590303-19.595636 4.23693-29.125819 2.646626-9.535354 6.883556-17.480404 12.706909-24.89406 5.298424-7.413657 12.18198-12.706909 20.657131-17.475233 8.475152-4.236929 18.005333-6.353455 29.125818-6.353454 9.005253 0 17.475232 2.116525 25.41899 5.823353 7.945051 3.706828 14.298505 9.535354 19.065535 16.950303h0.530101v-75.733333h41.307798v207.066505h-39.192565v-19.065535zM127.762747 512.024566c-2.116525-14.828606-11.121778-22.772364-26.480484-22.772364-5.823354 0-10.590384 1.05503-14.298505 3.706828-3.706828 2.646626-6.883556 5.823354-9.530182 10.060283-2.650505 4.238222-4.236929 8.475152-5.297132 13.768404-1.061495 4.76703-1.586424 10.064162-1.586424 14.828606 0 4.76703 0.524929 9.535354 1.586424 14.297212 1.060202 4.768323 2.646626 9.535354 4.767031 13.242182 2.116525 3.708121 5.293253 7.414949 9.530182 9.530182 3.708121 2.651798 8.475152 3.708121 14.298505 3.708121 8.475152 0 15.358707-2.646626 20.125737-7.414949 4.768323-4.761859 7.414949-11.120485 9.005253-19.589172h34.949171c-2.115232 17.475232-9.000081 30.712242-20.120565 39.717495-11.121778 9.005253-25.41899 13.765818-42.899394 13.765818-10.060283 0-19.065535-1.585131-27.009293-4.761858-8.46998-3.181899-15.353535-7.946343-21.182061-13.773576-5.823354-5.823354-10.060283-13.235717-13.23701-21.182061-3.17802-8.473859-4.768323-17.473939-4.768323-27.009293 0-10.061576 1.590303-19.596929 4.236929-28.065616 3.176727-8.475152 7.414949-16.420202 13.238303-22.773656 5.827232-6.353455 12.712081-11.120485 21.185939-14.827314 8.46998-3.708121 18.005333-5.298424 28.597011-5.298424 7.943758 0 15.357414 1.060202 22.242262 3.176727 7.413657 2.121697 13.767111 5.298424 19.065536 9.535354 5.823354 4.236929 10.060283 9.530182 13.767111 15.358707 3.706828 6.353455 5.828525 13.767111 6.353454 21.712162H127.762747v1.060202z m57.196607-96.389172h36.009373v181.121293H184.959354V415.635394z m96.384 115.449535c0 5.298424 0.530101 10.596848 1.585131 15.358707 1.061495 4.768323 2.651798 9.535354 5.298424 13.243475 2.646626 4.236929 5.828525 7.413657 9.535354 9.530182 4.231758 2.120404 9.000081 3.706828 15.353535 3.706828 6.358626 0 11.120485-1.061495 15.358707-3.706828 4.236929-2.646626 7.413657-5.293253 10.065455-9.530182 2.646626-4.238222 4.231758-8.475152 5.293252-13.243475 1.060202-4.761859 1.590303-10.060283 1.590303-15.358707 0-5.29196-0.530101-10.590384-1.590303-15.353535-1.061495-5.297131-2.646626-9.535354-5.293252-13.242182-2.651798-3.706828-5.828525-6.883556-10.065455-9.530182-4.238222-2.651798-9.530182-3.706828-15.358707-3.706828-6.353455 0-11.121778 1.05503-15.353535 3.706828-4.236929 2.646626-7.413657 5.823354-9.535354 9.530182-2.646626 3.706828-4.236929 8.475152-5.298424 13.242182-1.05503 5.29196-1.585131 10.591677-1.585131 15.353535z m-36.010667 0c0-10.590384 1.586424-20.120566 4.763151-28.595717 3.176727-8.473859 7.943758-15.888808 13.772283-21.712161 5.823354-5.823354 13.23701-10.590384 21.182061-13.767112 8.475152-3.176727 17.475232-4.768323 28.065616-4.768323 10.595556 0 19.595636 1.591596 28.070788 4.768323 8.475152 3.176727 15.358707 7.943758 21.712161 13.767112s10.590384 13.238303 13.767112 21.712161c3.176727 8.475152 4.768323 18.005333 4.768323 28.595717 0 10.596848-1.591596 20.12703-4.768323 28.602182-3.176727 8.468687-7.943758 15.883636-13.767112 21.710869-5.823354 5.823354-13.23701 10.591677-21.712161 13.768404-8.475152 3.176727-17.475232 4.76703-28.070788 4.76703-10.590384 0-19.590465-1.58901-28.065616-4.76703-8.475152-3.176727-15.358707-7.946343-21.182061-13.768404-5.828525-5.827232-10.595556-13.242182-13.772283-21.710869-3.176727-8.475152-4.763152-18.005333-4.763151-28.602182z m282.798545 65.671758h-34.424242v-18.535434h-0.530101c-4.768323 7.414949-10.591677 13.238303-18.005333 16.41503-7.414949 3.181899-14.828606 5.297131-22.242263 5.297131-9.535354 0-17.480404-1.060202-23.833859-3.706828s-11.121778-6.353455-14.828606-10.589091c-3.706828-4.768323-5.823354-10.591677-7.413656-16.950303-1.586424-6.883556-2.116525-14.297212-2.116526-22.242263v-81.025293h36.010667v74.141738c0 10.591677 1.590303 19.065535 5.297131 24.365252 3.176727 5.293253 9.530182 7.938586 18.005334 7.938586 10.060283 0 16.945131-3.176727 21.18206-8.998788 4.236929-5.828525 6.353455-15.358707 6.353455-28.59701v-68.848485h36.014545v131.338344h0.531394z m120.211394-65.671758c0-5.29196-0.530101-10.590384-1.586424-15.883636-1.060202-4.76703-2.651798-9.535354-5.298424-13.242182a40.665212 40.665212 0 0 0-9.530182-9.530182c-3.706828-2.121697-9.005253-3.706828-14.828606-3.706828-5.828525 0-11.121778 1.060202-14.828606 3.706828-4.236929 2.116525-7.413657 5.293253-9.535354 9.530182-2.646626 3.706828-4.236929 8.475152-5.293252 13.242182-1.060202 4.764444-1.590303 10.061576-1.590303 15.883636 0 5.298424 0.530101 10.066747 1.590303 15.358707 1.05503 5.298424 3.176727 9.535354 5.823353 13.773576 2.646626 4.230465 5.823354 7.412364 10.060283 9.530182 4.236929 2.646626 9.005253 3.706828 14.303677 3.706828 5.823354 0 11.121778-1.060202 14.828606-3.706828 4.231758-2.117818 7.413657-5.299717 9.530182-9.530182 2.116525-4.238222 4.236929-8.476444 5.298424-13.773576 0.526222-4.761859 1.056323-10.061576 1.056323-15.358707z m0.530101 49.251556c-4.768323 6.883556-10.060283 12.18198-16.943838 15.358707s-14.828606 4.768323-23.302465 4.768323c-10.060283 0-18.535434-2.121697-25.949091-5.828525s-13.767111-9.000081-18.535434-15.358707c-4.768323-6.353455-8.475152-13.768404-11.121778-22.242263-2.646626-8.46998-3.706828-17.476525-3.706828-26.476606 0-9.005253 1.060202-17.479111 3.706828-25.424161 2.646626-8.46998 6.353455-15.353535 11.121778-21.712162 4.768323-6.353455 11.121778-11.120485 18.005333-15.358707 7.413657-3.706828 15.888808-5.823354 25.41899-5.823354 7.945051 0 15.358707 1.591596 22.242263 4.768324s12.712081 7.943758 16.418909 14.828606h0.530101v-66.203152h36.010667v181.121293h-33.894142v-16.417616z m0 0" fill="#706EE7" /><path d="M758.498909 450.59103c-0.530101-3.708121-2.121697-6.353455-4.236929-7.94505-2.121697-1.585131-5.298424-2.646626-8.475152-2.646626-1.590303 0-3.176727 0.530101-5.298424 1.061494-2.116525 0.530101-3.706828 1.585131-4.763151 3.176728-1.590303 1.585131-2.651798 3.706828-3.706829 6.353454-1.060202 2.645333-1.590303 6.353455-1.590303 10.590384 0 2.121697 0.530101 4.768323 1.060202 6.883556 0.530101 2.121697 1.586424 4.238222 2.646626 6.358626 1.060202 1.586424 2.646626 3.176727 4.768324 4.238222 2.116525 1.05503 4.236929 1.585131 6.883555 1.585131 3.706828 0 6.883556-1.060202 9.005253-3.176727 2.116525-2.116525 3.706828-5.298424 4.231757-9.530182h12.18198c-1.060202 7.413657-3.706828 12.706909-8.475151 16.943839-4.231758 3.708121-10.060283 5.823354-17.475233 5.823353-4.236929 0-8.475152-0.524929-11.651878-2.115232-3.176727-1.591596-6.353455-3.708121-8.46998-6.353455-2.121697-2.651798-4.236929-5.828525-5.298424-9.005252-1.060202-3.706828-1.590303-7.414949-1.590304-11.651879s0.530101-7.945051 1.590304-11.651879c1.060202-3.706828 2.646626-6.883556 5.298424-9.530181 2.646626-2.646626 5.293253-4.76703 8.46998-6.353455 3.706828-1.590303 7.413657-2.120404 12.181979-2.120404 3.176727 0 6.353455 0.530101 9.530182 1.060202 3.181899 1.060202 5.298424 2.116525 7.945051 3.706828 2.121697 1.590303 4.236929 3.706828 5.828525 6.353455 1.586424 2.651798 2.116525 5.298424 2.646626 9.005252h-13.23701v-1.060202z m22.773657-40.247596h12.176808v77.848566h-12.176808v-77.848566z m51.898181 79.438869c-4.236929 0-8.475152-0.530101-12.181979-2.121697-3.706828-1.585131-6.353455-3.706828-9.005253-6.353454-2.646626-2.645333-4.236929-5.827232-5.293252-9.535354-1.060202-3.706828-2.121697-7.413657-2.121697-12.176808 0-4.236929 0.530101-8.473859 2.121697-11.650586 1.05503-3.706828 3.176727-6.883556 5.293252-9.535353 2.651798-2.646626 5.298424-4.763152 9.005253-6.353455 3.706828-1.586424 7.413657-2.116525 12.181979-2.116525 4.231758 0 8.46998 0.530101 12.176809 2.116525 3.706828 1.590303 6.358626 3.706828 9.005252 6.353455 2.646626 2.651798 4.236929 5.828525 5.293253 9.535353 1.060202 3.706828 2.121697 7.413657 2.121697 11.650586 0 4.238222-0.530101 8.46998-2.121697 12.176808-1.05503 3.708121-3.176727 6.89002-5.293253 9.535354-2.646626 2.646626-5.298424 4.768323-9.005252 6.353454-3.706828 1.061495-7.943758 2.121697-12.176809 2.121697z m0-10.065455c2.646626 0 5.293253-0.530101 7.413657-1.586424a10.395152 10.395152 0 0 0 4.763152-4.76703c1.060202-2.116525 2.121697-4.236929 2.651798-6.353455 0.524929-2.121697 1.05503-4.768323 1.05503-7.414949 0-2.650505-0.530101-4.76703-1.05503-7.413657a17.653657 17.653657 0 0 0-2.651798-6.358626c-1.05503-1.585131-3.176727-3.176727-4.763152-4.761859-2.121697-1.061495-4.236929-1.591596-7.413657-1.591595-2.651798 0-5.298424 0.530101-7.413656 1.591595-2.121697 1.05503-3.706828 2.645333-4.768323 4.761859-1.060202 1.591596-2.121697 4.236929-2.646627 6.358626-0.530101 2.646626-1.060202 4.763152-1.060202 7.413657 0 2.646626 0.530101 4.763152 1.060202 7.414949 0.524929 2.116525 1.586424 4.236929 2.646627 6.353455 1.060202 2.116525 3.176727 3.176727 4.768323 4.76703 2.116525 1.056323 4.231758 1.586424 7.413656 1.586424z m87.908849 8.475152h-12.18198v-7.945051c-1.586424 2.646626-3.706828 5.298424-6.883555 6.883556-3.176727 1.591596-5.823354 2.651798-9.005253 2.651798-7.413657 0-12.706909-1.590303-15.883636-5.298424-3.176727-3.706828-4.768323-9.00396-4.768324-16.418909v-35.479273h12.18198v33.894141c0 4.76703 1.05503 8.473859 2.646627 10.590384 2.116525 2.116525 4.768323 3.176727 7.94505 3.176727 2.646626 0 4.768323-0.530101 6.353455-1.060202 1.590303-1.056323 3.176727-2.116525 4.236929-3.176727 1.060202-1.586424 2.116525-3.176727 2.116525-4.763151 0.530101-2.120404 0.530101-3.706828 0.530101-6.358627v-32.832646h12.18198v56.136404h0.530101z m66.19798 0h-11.651879v-7.414949c-1.586424 3.176727-4.236929 5.823354-7.413657 6.883555-3.176727 1.591596-6.353455 2.121697-10.060282 2.121697-4.236929 0-8.475152-0.530101-11.651879-2.121697-3.176727-1.585131-5.823354-3.706828-8.475152-6.353454-2.116525-2.645333-3.706828-5.827232-4.763151-9.535354-1.060202-3.706828-1.590303-7.413657-1.590303-11.645414 0-5.298424 0.530101-9.535354 2.116525-13.243475 1.590303-3.706828 3.181899-6.883556 5.298424-9.000081 2.116525-2.650505 4.768323-4.236929 7.945051-5.297131 3.176727-1.060202 5.823354-1.591596 9.005252-1.591596 1.586424 0 3.706828 0 5.293253 0.531394 1.590303 0.530101 3.706828 1.060202 5.298424 1.590303 1.586424 0.530101 3.176727 1.586424 4.763152 2.646626 1.590303 1.060202 2.651798 2.646626 3.706828 4.23693v-28.595718h12.18198v76.788364z m-43.424323-27.540687c0 2.651798 0.530101 4.76703 1.05503 6.888727 0.530101 2.116525 1.590303 4.231758 2.651798 6.353455 1.060202 1.586424 2.646626 3.176727 4.768323 4.236929 2.116525 1.056323 4.231758 1.586424 6.883556 1.586424 2.646626 0 5.293253-0.530101 6.883555-1.586424a10.430061 10.430061 0 0 0 4.768323-4.76703c1.05503-2.116525 2.116525-4.236929 2.646627-6.353455 0.530101-2.121697 1.060202-4.768323 1.060202-7.414949 0-6.358626-1.590303-11.120485-4.23693-14.827313-2.651798-3.706828-6.358626-5.298424-11.121777-5.298424-2.651798 0-5.298424 0.530101-7.413657 1.591595-2.121697 1.05503-3.706828 2.645333-4.768323 4.761859-1.060202 2.121697-2.121697 4.236929-2.646626 6.358626-0.530101 2.116525-0.530101 5.823354-0.530101 8.46998z m-170.525738 121.808162h-0.530101l-10.065454-41.839192h-12.706909l-10.060283 41.839192h-0.530101l-11.121778-41.839192h-13.242182l17.480404 56.136404h13.23701l10.590384-41.837899 10.590384 41.837899h12.712081l17.475232-56.136404h-12.706909l-11.121778 41.839192z m124.449616-43.429495c-2.116525 0-3.706828 0.528808-5.293252 1.058909-1.590303 0.530101-3.706828 1.591596-4.768323 2.646626-1.060202 1.060202-2.646626 2.653091-3.706829 4.236929-1.060202 1.591596-1.590303 3.17802-2.121697 4.238223v-10.591677h-11.646707v56.136404h12.176808v-27.009293c0-3.176727 0.530101-5.823354 1.060202-8.476444 1.060202-2.646626 2.116525-4.235636 3.176728-5.823354 1.590303-1.58901 3.176727-2.646626 4.768323-3.706828 1.586424-1.058909 3.706828-1.058909 5.823353-1.058909h2.651798c1.05503 0 1.586424 0 2.646627 0.530101v-12.18198h-4.767031z m50.843152-20.121859v28.59701c-1.060202-1.591596-2.121697-2.646626-3.712-4.238222-1.586424-1.060202-3.176727-2.115232-4.763152-2.646626-1.590303-0.530101-3.176727-1.060202-5.298424-1.58901-1.586424-0.530101-3.706828-0.530101-5.293252-0.530101-3.181899 0-5.828525 0.530101-9.005253 1.58901-3.176727 1.061495-5.298424 2.646626-7.94505 5.299717-2.646626 2.646626-4.236929 5.293253-5.293253 9.000081-1.590303 3.705535-2.121697 7.943758-2.121697 13.240889 0 4.231758 0.530101 7.941172 1.590303 11.648 1.05503 3.705535 2.646626 6.887434 4.763152 9.535353 2.121697 2.646626 4.768323 4.76703 8.475151 6.353455 3.176727 1.58901 7.413657 2.121697 11.651879 2.121697 3.706828 0 6.883556-0.531394 10.060283-2.121697 3.176727-1.587717 5.828525-3.706828 7.413656-6.883556v7.412364h11.651879v-77.848566h-12.176808v1.060202z m-0.530101 57.192727c-0.530101 2.120404-1.590303 4.235636-2.651798 6.358627-1.05503 2.116525-2.646626 3.176727-4.763152 4.761858-2.121697 1.061495-4.236929 1.591596-6.888727 1.591596-2.646626 0-4.763152-0.530101-6.883556-1.591596a12.428929 12.428929 0 0 1-4.763151-4.236929 17.638141 17.638141 0 0 1-2.651798-6.353455c-0.530101-2.116525-1.05503-4.768323-1.05503-6.882262 0-2.646626 0.524929-4.768323 1.05503-7.41495a17.635556 17.635556 0 0 1 2.651798-6.353454c1.05503-2.120404 2.646626-3.706828 4.763151-4.76703 2.121697-1.060202 4.236929-1.591596 7.413657-1.591596 4.768323 0 8.475152 1.591596 11.121778 5.298424 2.651798 3.706828 4.236929 8.476444 4.236929 14.829899-0.530101 1.587717-1.05503 3.704242-1.585131 6.350868z m-90.560647-19.065535c-1.060202-3.706828-3.176727-6.883556-5.298424-9.530182-2.646626-2.646626-5.293253-4.768323-9.000081-6.353454-3.706828-1.591596-7.413657-2.121697-12.181979-2.121697s-8.475152 0.528808-12.18198 2.121697c-3.706828 1.585131-6.353455 3.706828-9.000081 6.353454s-4.236929 5.823354-5.298424 9.530182c-1.05503 3.706828-2.116525 7.412364-2.116526 11.650586 0 4.238222 0.530101 8.475152 2.116526 12.18198 1.060202 3.708121 3.176727 6.884848 5.298424 9.535353 2.646626 2.646626 5.293253 4.764444 9.000081 6.353455 3.706828 1.587717 7.413657 2.116525 12.18198 2.116525s8.475152-0.528808 12.181979-2.116525c3.706828-1.58901 6.353455-3.706828 9.000081-6.353455 2.651798-2.650505 4.236929-5.827232 5.298424-9.535353 1.060202-3.706828 2.116525-7.412364 2.116526-12.18198-0.524929-4.238222-1.056323-8.468687-2.116526-11.650586z m-11.651878 19.065535c-0.530101 2.120404-1.586424 4.235636-2.646627 6.358627-1.060202 2.116525-3.176727 3.176727-4.768323 4.761858-2.116525 1.061495-4.236929 1.591596-7.413656 1.591596s-5.293253-0.530101-7.413657-1.591596a10.395152 10.395152 0 0 1-4.768323-4.761858c-1.05503-2.12299-2.116525-4.238222-2.646627-6.358627-0.530101-2.117818-1.060202-4.764444-1.060202-7.414949 0-2.645333 0.530101-4.761859 1.060202-7.413657a17.746747 17.746747 0 0 1 2.646627-6.353454c1.060202-1.58901 3.181899-3.176727 4.768323-4.76703 2.121697-1.056323 4.236929-1.586424 7.413657-1.586425s5.298424 0.528808 7.413656 1.586425c2.121697 1.060202 3.706828 2.650505 4.768323 4.76703 1.060202 2.117818 2.116525 4.236929 2.646627 6.353454 0.530101 2.12299 1.060202 4.768323 1.060202 7.413657 0.001293 2.651798-0.528808 4.768323-1.060202 7.414949z m0 0" fill="#5AD651" /><path d="M425.388606 775.757576h17.473939l14.833778 56.136404h0.52493L472.524929 775.757576h16.943839l13.238303 56.136404h0.530101L518.595879 775.757576h16.94901l-23.302465 75.196767h-16.94901l-13.767111-55.607596h-0.530101l-13.768404 55.607596H449.753859L425.388606 775.757576z m154.110707 77.317171c-5.828525 0-11.121778-1.060202-15.888808-3.176727-4.768323-2.120404-8.475152-4.76703-11.651879-7.943757-3.176727-3.706828-5.823354-7.413657-7.413656-12.712081-1.586424-4.764444-2.646626-10.060283-2.646627-15.883637 0-5.828525 1.060202-11.123071 2.646627-15.888808 1.590303-4.768323 4.236929-9.005253 7.413656-12.71208 3.176727-3.708121 7.413657-6.353455 11.651879-7.946344 4.768323-2.116525 10.060283-3.176727 15.888808-3.176727 5.823354 0 11.121778 1.060202 15.883636 3.176727 4.768323 2.12299 8.475152 4.768323 11.651879 7.946344s5.828525 7.412364 7.413657 12.71208c1.590303 4.76703 2.651798 10.060283 2.651798 15.888808 0 5.823354-1.060202 11.120485-2.651798 15.883637-1.586424 4.76703-4.236929 9.005253-7.413657 12.712081-3.176727 3.705535-7.413657 6.352162-11.651879 7.943757-4.231758 2.115232-9.530182 3.176727-15.883636 3.176727z m0-13.242181c3.706828 0 6.883556-0.524929 9.530182-2.115233 2.646626-1.591596 4.768323-3.708121 6.883556-6.353454 1.590303-2.651798 3.176727-5.298424 3.706828-8.475152 1.060202-3.176727 1.060202-6.353455 1.060202-9.530182 0-3.181899-0.530101-6.358626-1.060202-9.535353-1.05503-3.176727-2.116525-5.823354-3.706828-8.476445-1.586424-2.646626-3.706828-4.230465-6.883556-5.823353-2.646626-1.58901-5.823354-2.116525-9.530182-2.116525s-6.883556 0.526222-9.535353 2.116525c-2.646626 1.591596-4.763152 3.706828-6.883556 5.823353-2.116525 2.12299-3.176727 5.299717-3.706828 8.476445-1.060202 3.176727-1.060202 6.353455-1.060202 9.535353 0 3.176727 0.530101 6.353455 1.060202 9.530182 1.060202 3.176727 2.121697 5.823354 3.706828 8.475152 1.590303 2.645333 3.706828 4.761859 6.883556 6.353454 2.651798 1.58901 5.828525 2.115232 9.535353 2.115233zM631.398788 775.757576h15.358707v14.297212h0.530101c0.524929-2.120404 1.586424-4.235636 2.646626-5.828525a25.050505 25.050505 0 0 1 5.293253-5.29196c2.121697-1.591596 4.236929-2.646626 6.358626-3.706828 2.646626-1.061495 4.763152-1.591596 7.413657-1.591596h4.236929c0.524929 0 1.586424 0 2.116525 0.530101v15.888808c-1.060202 0-2.116525-0.530101-3.706828-0.530101h-3.706828c-2.646626 0-5.298424 0.530101-7.945051 1.591596-2.646626 1.053737-4.768323 2.645333-6.353454 4.761858-1.590303 2.12299-3.176727 4.768323-4.23693 7.946344s-1.590303 6.883556-1.590303 11.120485v35.485737h-16.413737V775.757576z m121.80299 75.196767h-15.888808v-10.060282h-0.530101c-2.116525 4.236929-5.293253 7.412364-9.530182 9.535353-4.236929 2.115232-9.005253 2.645333-13.23701 2.645333-5.828525 0-11.121778-1.060202-15.358707-3.176727-4.236929-2.120404-7.945051-4.76703-11.121778-8.473858-2.651798-3.706828-5.298424-7.946343-6.358626-12.712081-1.586424-4.764444-2.116525-10.061576-2.116526-15.883637 0-6.884848 1.060202-12.712081 2.646627-17.481697 1.590303-4.763152 4.236929-9.000081 7.413656-12.176808s6.358626-5.298424 10.590384-6.882262c3.706828-1.591596 7.945051-2.12299 12.18198-2.12299 2.121697 0 4.768323 0 6.883555 0.530101 2.651798 0.531394 4.768323 1.061495 6.883556 2.116525 2.121697 1.060202 4.236929 2.12299 6.358626 3.706828 2.116525 1.591596 3.706828 3.181899 4.763152 5.299718h0.530101v-38.661172h16.418909v103.797656h-0.528808z m-57.722829-36.54206c0 3.176727 0.524929 6.358626 1.055031 9.535353 1.060202 3.176727 2.121697 5.823354 3.706828 8.471273 1.590303 2.651798 3.706828 4.235636 6.358626 5.828525 2.646626 1.585131 5.823354 2.115232 9.530182 2.115233s6.883556-0.530101 9.530182-2.115233a18.276848 18.276848 0 0 0 6.358626-6.353454c1.586424-2.651798 3.176727-5.299717 3.706829-8.476445 1.05503-3.175434 1.05503-6.352162 1.05503-9.535353 0-8.46998-2.116525-14.828606-5.823354-19.589172-3.706828-4.768323-9.005253-6.884848-15.358707-6.884848-3.706828 0-6.883556 1.056323-10.060283 2.646626a18.230303 18.230303 0 0 0-6.353454 6.353454c-1.590303 2.646626-2.651798 5.298424-3.706828 8.475152v9.528889z m0 0" fill="#706EE7" /><path d="M226.797253 741.863434H205.61002l-13.23701-50.31305h-0.530101l-12.712081 50.31305H157.948768l-23.827394-75.201939H155.832242l13.768404 50.836687h0.530101l12.70691-50.836687h20.12703l12.712081 50.836687h0.524929l13.772283-50.836687h21.18206l-24.358787 75.201939z m50.839272-37.072161c0 3.176727 0.530101 5.824646 1.060202 9.001373 0.524929 2.651798 1.585131 5.298424 3.176728 7.943758 1.585131 2.121697 3.176727 4.238222 5.823353 5.298424 2.120404 1.587717 5.297131 2.117818 8.473859 2.117818 3.708121 0 6.354747-0.530101 9.005252-2.117818 2.116525-1.58901 4.233051-3.176727 5.823354-5.298424 1.591596-2.115232 2.646626-4.76703 3.176727-7.943758 0.530101-2.647919 1.061495-5.824646 1.061495-9.001373 0-3.175434-0.531394-5.828525-1.061495-9.005253-0.530101-2.646626-1.585131-5.293253-3.176727-7.943757-1.590303-2.646626-3.176727-4.238222-5.823354-5.293253-2.120404-1.591596-5.297131-2.12299-9.005252-2.12299-3.706828 0-6.353455 0.530101-8.473859 2.12299-2.116525 1.585131-4.238222 3.176727-5.823353 5.293253-1.591596 2.120404-2.651798 4.76703-3.176728 7.943757-1.060202 2.646626-1.060202 5.829818-1.060202 9.005253z m-20.657131 0c0-5.828525 1.060202-11.651879 2.651798-16.417616 1.585131-4.768323 4.236929-9.000081 7.943757-12.70691 3.176727-3.181899 7.414949-6.358626 12.176809-7.946343 4.768323-2.121697 10.065455-2.651798 15.888808-2.651798 5.828525 0 11.121778 1.061495 15.888808 2.651798 4.768323 2.117818 9.000081 4.764444 12.18198 7.946343 3.176727 3.176727 5.823354 7.412364 7.939878 12.70691 2.120404 5.297131 2.651798 10.589091 2.651798 16.417616 0 5.824646-1.061495 11.653172-2.651798 16.413737-1.586424 4.768323-4.233051 9.005253-7.939878 12.18198-3.706828 3.176727-7.413657 5.823354-12.18198 7.946343-4.76703 1.585131-10.060283 2.646626-15.888808 2.646627-5.823354 0-11.120485-1.061495-15.888808-2.646627-4.761859-1.591596-9.000081-4.238222-12.176809-7.946343-3.181899-3.176727-5.828525-7.412364-7.943757-12.18198-1.591596-5.290667-2.651798-10.589091-2.651798-16.413737z m91.090747-37.599677H367.665778v13.765818h0.530101c1.056323-2.115232 2.116525-4.236929 3.708121-6.353454 1.585131-2.120404 3.706828-3.706828 5.823354-5.297132 2.115232-1.587717 4.236929-2.646626 6.883555-3.176727 2.646626-0.531394 4.768323-1.061495 7.413657-1.061495 1.591596 0 2.646626 0 4.238222 0.530101v19.066828c-1.061495 0-2.116525-0.531394-3.708121-0.531394h-3.706829c-3.706828 0-6.883556 0.531394-9.530181 2.121697-2.651798 1.05503-4.76703 3.176727-6.358627 5.294546-1.585131 2.120404-2.646626 4.76703-3.176727 7.412363-0.530101 2.653091-1.060202 5.828525-1.060202 9.535354v33.894141h-20.65196v-75.200646z m109.626182 37.070869c0-3.176727-0.530101-5.829818-1.060202-9.006546-0.530101-2.646626-1.591596-5.293253-3.176727-7.412363-1.591596-2.116525-3.176727-3.708121-5.298424-5.293253-2.116525-1.591596-5.298424-2.12299-8.475152-2.12299s-6.353455 0.530101-8.468687 2.12299c-2.121697 1.585131-4.238222 3.176727-5.828525 5.293253-1.586424 2.120404-2.646626 4.76703-3.176727 7.412363-0.530101 2.653091-1.060202 5.829818-1.060202 9.006546 0 2.646626 0.530101 5.823354 1.060202 8.475151 0.530101 2.645333 1.590303 5.29196 3.176727 7.938586 1.590303 2.12299 3.176727 4.236929 5.828525 5.299717 2.115232 1.58901 4.761859 2.116525 7.938586 2.116525 3.181899 0 6.358626-0.526222 8.475152-2.116525 2.121697-1.591596 4.236929-3.176727 5.298424-5.299717 1.585131-2.116525 2.115232-4.761859 2.645333-7.938586 1.591596-2.121697 2.121697-5.298424 2.121697-8.475151z m0.52493 28.065616c-2.646626 4.235636-5.823354 6.882263-10.060283 9.005252-3.706828 1.585131-8.475152 2.646626-13.23701 2.646627-5.828525 0-10.595556-1.061495-14.828606-3.176728-4.236929-2.116525-7.943758-5.298424-10.595556-9.005252-2.646626-3.706828-4.763152-7.941172-6.353455-12.706909-1.586424-4.768323-2.116525-10.061576-2.116525-15.358707 0-5.299717 0.530101-10.061576 2.116525-14.828606 1.590303-4.768323 3.706828-9.006545 6.353455-12.183273 2.651798-3.705535 6.358626-6.353455 10.595556-8.46998 4.233051-2.120404 9.000081-3.181899 14.298505-3.181899 4.236929 0 8.468687 1.061495 12.706909 2.651798 4.236929 2.117818 7.413657 4.764444 9.535353 8.471273h0.530101v-37.595798h20.65196v103.267555h-19.596929v-9.535353z m126.571313-38.657293c-1.586424-8.473859-6.353455-12.712081-15.358707-12.712081-3.176727 0-5.823354 0.531394-8.46998 2.121697-2.121697 1.587717-4.236929 3.176727-5.298424 5.824647-1.586424 2.116525-2.646626 4.76703-3.176728 7.943757-0.530101 2.646626-1.060202 5.823354-1.060202 8.475152 0 2.646626 0.530101 5.294545 1.060202 8.471272 0.530101 2.651798 1.590303 5.298424 2.646627 7.412364 1.060202 2.12299 3.176727 4.238222 5.298424 5.828525 2.116525 1.587717 4.768323 2.117818 7.94505 2.117818 4.763152 0 8.46998-1.587717 11.651879-4.238222 2.646626-2.645333 4.231758-6.353455 4.763152-11.120485H604.918303c-1.590303 10.064162-5.298424 17.479111-11.651879 22.771071-6.353455 5.299717-14.828606 7.946343-24.358788 7.946343-5.828525 0-10.595556-1.061495-15.358707-2.646626-4.768323-2.12299-8.475152-4.768323-12.18198-7.946343-3.176727-3.176727-5.823354-7.412364-7.94505-12.18198-1.586424-4.76703-2.646626-10.060283-2.646626-15.357414 0-5.823354 1.060202-11.123071 2.646626-16.41503 1.590303-4.76703 4.236929-9.535354 7.413657-12.712081 3.176727-3.706828 7.413657-6.353455 12.181979-8.473859 4.768323-2.116525 10.060283-3.17802 16.413738-3.17802 4.236929 0 8.475152 0.531394 12.712081 1.591596 4.236929 1.058909 7.945051 3.175434 11.121777 5.293252 3.176727 2.120404 5.823354 5.297131 7.945051 9.005253 2.116525 3.706828 3.176727 7.943758 3.706828 12.712081h-20.125737v-0.532687z m32.307717-55.074909h20.651959v103.267555h-20.651959v-103.267555z m55.606303 66.195394c0 3.176727 0.530101 5.824646 1.05503 9.001373 0.530101 2.651798 1.590303 5.298424 3.181899 7.943758 1.586424 2.121697 3.176727 4.238222 5.823354 5.298424 2.116525 1.587717 5.298424 2.117818 8.475151 2.117818 3.706828 0 6.353455-0.530101 9.000081-2.117818 2.121697-1.58901 4.236929-3.176727 5.828525-5.298424 1.586424-2.115232 2.646626-4.76703 3.176728-7.943758s1.060202-5.824646 1.060202-9.001373c0-3.175434-0.530101-5.828525-1.060202-9.005253s-1.590303-5.293253-3.176728-7.943757c-1.590303-2.116525-3.176727-4.238222-5.828525-5.293253-2.646626-1.060202-5.293253-2.12299-9.000081-2.12299s-6.358626 0.530101-8.475151 2.12299c-2.116525 1.585131-4.236929 3.176727-5.823354 5.293253-1.590303 2.120404-2.651798 4.76703-3.181899 7.943757-1.05503 2.646626-1.05503 5.829818-1.05503 9.005253z m-20.657131 0c0-5.828525 1.060202-11.651879 2.651798-16.417616 1.586424-4.768323 4.231758-9.000081 7.939878-12.70691 3.181899-3.181899 7.413657-6.358626 12.18198-7.946343 4.768323-2.121697 10.060283-2.651798 15.888808-2.651798 5.823354 0 11.121778 1.061495 15.888808 2.651798 4.763152 2.117818 9.000081 4.764444 12.176808 7.946343 3.176727 3.176727 5.828525 7.412364 7.945051 12.70691 2.121697 5.297131 2.646626 10.589091 2.646626 16.417616 0 5.824646-1.05503 11.653172-2.646626 16.413737-1.586424 4.768323-4.236929 9.005253-7.945051 12.18198-3.176727 3.176727-7.413657 5.823354-12.176808 7.946343-4.768323 1.585131-10.065455 2.646626-15.888808 2.646627-5.828525 0-11.121778-1.061495-15.888808-2.646627-4.768323-1.591596-9.000081-4.238222-12.18198-7.946343-3.176727-3.176727-5.823354-7.412364-7.939878-12.18198-2.121697-5.290667-2.651798-10.589091-2.651798-16.413737z m161.525656 37.072161h-19.595636v-10.591676h-0.530101c-2.646626 4.233051-5.823354 7.414949-10.060283 9.531474-4.236929 2.115232-8.475152 2.645333-12.712081 2.645334-5.293253 0-10.060283-0.530101-13.767111-2.115233-3.706828-1.591596-6.353455-3.706828-8.475152-6.353454-2.116525-2.651798-3.706828-5.828525-4.236929-9.535354-0.524929-3.708121-1.05503-7.946343-1.05503-12.706909v-46.076121h20.651959v42.368c0 6.353455 1.060202 10.591677 2.646627 13.768404 2.121697 3.176727 5.298424 4.76703 10.065454 4.76703 5.823354 0 9.530182-1.58901 12.18198-4.76703 2.646626-3.176727 3.706828-9.005253 3.706828-16.418909v-39.187394h20.65196v74.671838h0.527515z m68.843313-37.600969c0-3.176727-0.530101-5.829818-1.05503-9.006546-0.530101-2.646626-1.590303-5.293253-3.181899-7.412363a25.025939 25.025939 0 0 0-5.293253-5.293253c-2.121697-1.591596-5.298424-2.12299-8.475151-2.12299s-6.353455 0.530101-8.475152 2.12299c-2.116525 1.585131-4.231758 3.176727-5.823353 5.293253-1.590303 2.120404-2.646626 4.76703-3.176727 7.412363-0.530101 2.653091-1.060202 5.829818-1.060202 9.006546 0 2.646626 0.530101 5.823354 1.060202 8.475151 0.530101 2.645333 1.586424 5.29196 3.176727 7.938586 1.590303 2.12299 3.176727 4.236929 5.823353 5.299717 2.121697 1.58901 4.768323 2.116525 7.945051 2.116525s6.358626-0.526222 8.475151-2.116525c2.116525-1.591596 4.236929-3.176727 5.298425-5.299717 1.586424-2.116525 2.116525-4.761859 2.646626-7.938586 1.585131-2.121697 2.115232-5.298424 2.115232-8.475151z m0 28.065616c-2.646626 4.235636-5.823354 6.882263-10.060283 9.005252-4.236929 2.115232-8.475152 2.646626-13.23701 2.646627-5.828525 0-10.595556-1.061495-14.828606-3.176728-4.236929-2.116525-7.945051-5.298424-10.595555-9.005252-2.646626-3.706828-4.763152-7.941172-6.353455-12.706909-1.586424-4.768323-2.116525-10.061576-2.116525-15.358707 0-5.299717 0.530101-10.061576 2.116525-14.828606 1.590303-4.768323 3.706828-9.006545 6.353455-12.183273 2.651798-3.705535 6.358626-6.353455 10.595555-8.46998 4.231758-2.120404 9.000081-3.181899 14.298505-3.181899 4.236929 0 8.46998 1.061495 12.706909 2.651798 4.236929 2.117818 7.413657 4.764444 9.535354 8.471273h0.530101v-37.595798h20.65196v103.267555H882.419717v-9.535353z m0 0" fill="#5AD651" /></svg>